# This file uses centimeters as units for non-parametric coordinates.

v 0.600000 0.000000 -0.025003
v 0.625879 -0.000000 -0.050000
v 0.519615 0.300000 -0.025003
v 0.542027 0.312940 -0.050000
v 0.300000 0.519615 -0.025003
v 0.312940 0.542027 -0.050000
v -0.000000 0.600000 -0.025003
v -0.000000 0.625879 -0.050000
v -0.300000 0.519615 -0.025003
v -0.312940 0.542027 -0.050000
v -0.519615 0.300000 -0.025003
v -0.542027 0.312940 -0.050000
v -0.600000 -0.000000 -0.025003
v -0.625879 -0.000000 -0.050000
v -0.519615 -0.300000 -0.025003
v -0.542027 -0.312940 -0.050000
v -0.300000 -0.519615 -0.025003
v -0.312940 -0.542027 -0.050000
v 0.000000 -0.600000 -0.025003
v 0.000000 -0.625879 -0.050000
v 0.300000 -0.519615 -0.025003
v 0.312940 -0.542027 -0.050000
v 0.519615 -0.300000 -0.025003
v 0.542027 -0.312940 -0.050000
v 0.600000 -0.000000 0.025003
v 0.625879 -0.000000 0.050000
v 0.519615 0.300000 0.025003
v 0.542027 0.312940 0.050000
v 0.300000 0.519615 0.025003
v 0.312940 0.542027 0.050000
v -0.000000 0.600000 0.025003
v -0.000000 0.625879 0.050000
v -0.300000 0.519615 0.025003
v -0.312940 0.542027 0.050000
v -0.519615 0.300000 0.025003
v -0.542027 0.312940 0.050000
v -0.600000 -0.000000 0.025003
v -0.625879 -0.000000 0.050000
v -0.519615 -0.300000 0.025003
v -0.542027 -0.312940 0.050000
v -0.300000 -0.519615 0.025003
v -0.312940 -0.542027 0.050000
v 0.000000 -0.600000 0.025003
v 0.000000 -0.625879 0.050000
v 0.300000 -0.519615 0.025003
v 0.312940 -0.542027 0.050000
v 0.519615 -0.300000 0.025003
v 0.542027 -0.312940 0.050000
v 0.974121 -0.000000 0.050000
v 1.000000 -0.000000 0.025003
v 0.843613 0.487060 0.050000
v 0.866025 0.500000 0.025003
v 0.487060 0.843613 0.050000
v 0.500000 0.866025 0.025003
v -0.000000 0.974121 0.050000
v 0.000000 1.000000 0.025003
v -0.487060 0.843613 0.050000
v -0.500000 0.866025 0.025003
v -0.843613 0.487060 0.050000
v -0.866025 0.500000 0.025003
v -0.974121 -0.000000 0.050000
v -1.000000 -0.000000 0.025003
v -0.843613 -0.487060 0.050000
v -0.866025 -0.500000 0.025003
v -0.487060 -0.843613 0.050000
v -0.500000 -0.866025 0.025003
v 0.000000 -0.974121 0.050000
v 0.000000 -1.000000 0.025003
v 0.487060 -0.843613 0.050000
v 0.500000 -0.866025 0.025003
v 0.843613 -0.487060 0.050000
v 0.866025 -0.500000 0.025003
v 1.000000 0.000000 -0.025003
v 0.974121 0.000000 -0.050000
v 0.866025 0.500000 -0.025003
v 0.843613 0.487060 -0.050000
v 0.500000 0.866025 -0.025003
v 0.487060 0.843613 -0.050000
v 0.000000 1.000000 -0.025003
v -0.000000 0.974121 -0.050000
v -0.500000 0.866025 -0.025003
v -0.487060 0.843613 -0.050000
v -0.866025 0.500000 -0.025003
v -0.843613 0.487060 -0.050000
v -1.000000 0.000000 -0.025003
v -0.974121 0.000000 -0.050000
v -0.866025 -0.500000 -0.025003
v -0.843613 -0.487060 -0.050000
v -0.500000 -0.866025 -0.025003
v -0.487060 -0.843613 -0.050000
v 0.000000 -1.000000 -0.025003
v 0.000000 -0.974121 -0.050000
v 0.500000 -0.866025 -0.025003
v 0.487060 -0.843613 -0.050000
v 0.866025 -0.500000 -0.025003
v 0.843613 -0.487060 -0.050000
vt 1.000000 0.937506
vt 1.000000 1.000000
vt 0.000000 1.000000
vt 0.083333 1.000000
vt 0.166667 1.000000
vt 0.250000 1.000000
vt 0.333333 1.000000
vt 0.416667 1.000000
vt 0.500000 1.000000
vt 0.583333 1.000000
vt 0.666667 1.000000
vt 0.750000 1.000000
vt 0.833333 1.000000
vt 0.916667 1.000000
vt 0.000000 0.812494
vt 1.000000 0.733825
vt 0.000000 0.516175
vt 1.000000 0.437506
vt 0.000000 0.312494
vt 1.000000 0.233825
vt 0.000000 0.937506
vt 0.083333 0.812494
vt 0.083333 0.937506
vt 0.166667 0.812494
vt 0.166667 0.937506
vt 0.250000 0.812494
vt 0.250000 0.937506
vt 0.333333 0.812494
vt 0.333333 0.937506
vt 0.416667 0.812494
vt 0.416667 0.937506
vt 0.500000 0.812494
vt 0.500000 0.937506
vt 0.583333 0.812494
vt 0.583333 0.937506
vt 0.666667 0.812494
vt 0.666667 0.937506
vt 0.750000 0.812494
vt 0.750000 0.937506
vt 0.833333 0.812494
vt 0.833333 0.937506
vt 0.916667 0.812494
vt 0.916667 0.937506
vt 1.000000 0.812494
vt 0.000000 0.733825
vt 0.083333 0.516175
vt 0.083333 0.733825
vt 0.166667 0.516175
vt 0.166667 0.733825
vt 0.250000 0.516175
vt 0.250000 0.733825
vt 0.333333 0.516175
vt 0.333333 0.733825
vt 0.416667 0.516175
vt 0.416667 0.733825
vt 0.500000 0.516175
vt 0.500000 0.733825
vt 0.583333 0.516175
vt 0.583333 0.733825
vt 0.666667 0.516175
vt 0.666667 0.733825
vt 0.750000 0.516175
vt 0.750000 0.733826
vt 0.833333 0.516175
vt 0.833333 0.733825
vt 0.916667 0.516175
vt 0.916667 0.733825
vt 1.000000 0.516175
vt 0.000000 0.437506
vt 0.083333 0.312494
vt 0.083333 0.437506
vt 0.166667 0.312494
vt 0.166667 0.437506
vt 0.250000 0.312494
vt 0.250000 0.437506
vt 0.333333 0.312494
vt 0.333333 0.437506
vt 0.416667 0.312494
vt 0.416667 0.437506
vt 0.500000 0.312494
vt 0.500000 0.437506
vt 0.583333 0.312494
vt 0.583333 0.437506
vt 0.666667 0.312494
vt 0.666667 0.437506
vt 0.750000 0.312494
vt 0.750000 0.437506
vt 0.833333 0.312494
vt 0.833333 0.437506
vt 0.916667 0.312494
vt 0.916667 0.437506
vt 1.000000 0.312494
vt 0.000000 0.233825
vt 0.000000 0.016175
vt 0.083333 0.016175
vt 0.083333 0.233825
vt 0.166667 0.016175
vt 0.166667 0.233825
vt 0.250000 0.016175
vt 0.250000 0.233825
vt 0.333333 0.016175
vt 0.333333 0.233825
vt 0.416667 0.016175
vt 0.416667 0.233825
vt 0.500000 0.016175
vt 0.500000 0.233825
vt 0.583333 0.016175
vt 0.583333 0.233825
vt 0.666667 0.016175
vt 0.666667 0.233825
vt 0.750000 0.016175
vt 0.750000 0.233825
vt 0.833333 0.016175
vt 0.833333 0.233825
vt 0.916667 0.016175
vt 0.916667 0.233825
vt 1.000000 0.016175
vn -0.694746 0.000000 -0.719255
vn -0.694746 0.000000 -0.719255
vn -0.601668 0.347373 -0.719254
vn -0.601668 0.347373 -0.719254
vn -0.601668 -0.347373 -0.719255
vn -0.601668 -0.347373 -0.719255
vn -0.347373 -0.601668 -0.719254
vn -0.347373 -0.601668 -0.719254
vn 0.000000 -0.694747 -0.719254
vn 0.000000 -0.694747 -0.719254
vn 0.347373 -0.601668 -0.719254
vn 0.347373 -0.601668 -0.719254
vn 0.601668 -0.347373 -0.719254
vn 0.601668 -0.347373 -0.719254
vn 0.694747 0.000000 -0.719254
vn 0.694747 0.000000 -0.719254
vn 0.601669 0.347374 -0.719254
vn 0.601669 0.347374 -0.719254
vn 0.347373 0.601668 -0.719254
vn 0.347373 0.601668 -0.719254
vn 0.000000 0.694747 -0.719254
vn 0.000000 0.694747 -0.719254
vn -0.347373 0.601668 -0.719254
vn -0.347373 0.601668 -0.719254
vn -0.694746 0.000000 0.719255
vn -0.694746 0.000000 0.719255
vn -0.601668 -0.347373 0.719255
vn -0.601668 -0.347373 0.719255
vn -0.601668 0.347373 0.719254
vn -0.601668 0.347373 0.719254
vn -0.347373 -0.601668 0.719254
vn -0.347373 -0.601668 0.719254
vn 0.000000 -0.694747 0.719254
vn 0.000000 -0.694747 0.719254
vn 0.347373 -0.601668 0.719254
vn 0.347373 -0.601668 0.719254
vn 0.601668 -0.347373 0.719254
vn 0.601669 -0.347373 0.719254
vn 0.694747 0.000000 0.719254
vn 0.694747 0.000000 0.719254
vn 0.601669 0.347374 0.719254
vn 0.601669 0.347374 0.719254
vn 0.347373 0.601668 0.719254
vn 0.347373 0.601668 0.719254
vn 0.000000 0.694747 0.719254
vn 0.000000 0.694747 0.719254
vn -0.347373 0.601668 0.719254
vn -0.347373 0.601668 0.719254
vn 0.694746 0.000000 0.719255
vn 0.694746 0.000000 0.719255
vn 0.601668 0.347373 0.719255
vn 0.601668 0.347373 0.719255
vn 0.601668 -0.347373 0.719255
vn 0.601668 -0.347373 0.719255
vn 0.347373 0.601668 0.719254
vn 0.347373 0.601668 0.719254
vn 0.000000 0.694747 0.719254
vn 0.000000 0.694747 0.719254
vn -0.347373 0.601668 0.719254
vn -0.347373 0.601668 0.719254
vn -0.601668 0.347373 0.719255
vn -0.601668 0.347373 0.719255
vn -0.694746 0.000000 0.719255
vn -0.694746 0.000000 0.719255
vn -0.601668 -0.347373 0.719255
vn -0.601668 -0.347373 0.719255
vn -0.347373 -0.601668 0.719254
vn -0.347373 -0.601668 0.719254
vn 0.000000 -0.694747 0.719254
vn 0.000000 -0.694747 0.719254
vn 0.347373 -0.601668 0.719254
vn 0.347373 -0.601668 0.719254
vn 0.694746 -0.000000 -0.719255
vn 0.694746 -0.000000 -0.719255
vn 0.601668 0.347373 -0.719255
vn 0.601668 0.347373 -0.719255
vn 0.601668 -0.347373 -0.719255
vn 0.601668 -0.347373 -0.719255
vn 0.347373 0.601668 -0.719255
vn 0.347373 0.601668 -0.719255
vn 0.000000 0.694747 -0.719254
vn 0.000000 0.694747 -0.719254
vn -0.347373 0.601668 -0.719255
vn -0.347373 0.601668 -0.719255
vn -0.601668 0.347373 -0.719255
vn -0.601668 0.347373 -0.719255
vn -0.694746 0.000000 -0.719255
vn -0.694746 0.000000 -0.719255
vn -0.601668 -0.347373 -0.719255
vn -0.601668 -0.347373 -0.719255
vn -0.347373 -0.601668 -0.719255
vn -0.347373 -0.601668 -0.719255
vn 0.000000 -0.694747 -0.719254
vn 0.000000 -0.694747 -0.719254
vn 0.347373 -0.601668 -0.719255
vn 0.347373 -0.601668 -0.719255
vn -0.866025 -0.500000 0.000000
vn -1.000000 0.000000 0.000000
vn -1.000000 0.000000 0.000000
vn -0.866025 -0.500000 0.000000
vn -0.500000 -0.866025 0.000000
vn -0.500000 -0.866025 0.000000
vn 0.000000 -1.000000 0.000000
vn 0.000000 -1.000000 0.000000
vn 0.500000 -0.866025 0.000000
vn 0.500000 -0.866025 0.000000
vn 0.866026 -0.500000 0.000000
vn 0.866026 -0.500000 0.000000
vn 1.000000 0.000000 0.000000
vn 1.000000 0.000000 0.000000
vn 0.866025 0.500000 -0.000000
vn 0.866025 0.500000 -0.000000
vn 0.500000 0.866025 -0.000000
vn 0.500000 0.866025 -0.000000
vn 0.000000 1.000000 -0.000000
vn 0.000000 1.000000 -0.000000
vn -0.500000 0.866025 -0.000000
vn -0.500000 0.866025 -0.000000
vn -0.866025 0.500000 0.000000
vn -0.866025 0.500000 0.000000
vn 0.000000 0.000000 1.000000
vn 0.000000 0.000000 1.000000
vn 0.000000 0.000000 1.000000
vn 0.000000 0.000000 1.000000
vn 0.000000 -0.000000 1.000000
vn 0.000000 -0.000000 1.000000
vn 0.000000 -0.000000 1.000000
vn 0.000000 -0.000000 1.000000
vn 0.000000 0.000000 1.000000
vn 0.000000 0.000000 1.000000
vn 0.000000 0.000000 1.000000
vn 0.000000 0.000000 1.000000
vn 0.000000 0.000000 1.000000
vn 0.000000 0.000000 1.000000
vn 0.000000 0.000000 1.000000
vn 0.000000 0.000000 1.000000
vn 0.000000 0.000000 1.000000
vn 0.000000 0.000000 1.000000
vn 0.000000 0.000000 1.000000
vn 0.000000 0.000000 1.000000
vn 0.000000 0.000000 1.000000
vn 0.000000 0.000000 1.000000
vn 0.000000 0.000000 1.000000
vn 0.000000 0.000000 1.000000
vn 0.866025 0.500000 -0.000000
vn 1.000000 -0.000000 -0.000000
vn 1.000000 -0.000000 -0.000000
vn 0.866025 0.500000 -0.000000
vn 0.500000 0.866025 -0.000000
vn 0.500000 0.866025 -0.000000
vn 0.000000 1.000000 -0.000000
vn 0.000000 1.000000 -0.000000
vn -0.500000 0.866025 -0.000000
vn -0.500000 0.866025 -0.000000
vn -0.866025 0.500000 0.000000
vn -0.866025 0.500000 0.000000
vn -1.000000 0.000000 0.000000
vn -1.000000 0.000000 0.000000
vn -0.866025 -0.500000 0.000000
vn -0.866025 -0.500000 0.000000
vn -0.500000 -0.866025 0.000000
vn -0.500000 -0.866025 0.000000
vn 0.000000 -1.000000 0.000000
vn 0.000000 -1.000000 0.000000
vn 0.500000 -0.866025 0.000000
vn 0.500000 -0.866025 0.000000
vn 0.866025 -0.500000 -0.000000
vn 0.866025 -0.500000 -0.000000
vn 0.000000 -0.000000 -1.000000
vn 0.000000 -0.000000 -1.000000
vn 0.000000 -0.000000 -1.000000
vn 0.000000 -0.000000 -1.000000
vn 0.000000 -0.000000 -1.000000
vn 0.000000 -0.000000 -1.000000
vn 0.000000 -0.000000 -1.000000
vn 0.000000 -0.000000 -1.000000
vn 0.000000 -0.000000 -1.000000
vn 0.000000 -0.000000 -1.000000
vn 0.000000 -0.000000 -1.000000
vn 0.000000 -0.000000 -1.000000
vn 0.000000 -0.000000 -1.000000
vn 0.000000 -0.000000 -1.000000
vn 0.000000 -0.000000 -1.000000
vn 0.000000 -0.000000 -1.000000
vn 0.000000 -0.000000 -1.000000
vn 0.000000 -0.000000 -1.000000
vn 0.000000 -0.000000 -1.000000
vn 0.000000 -0.000000 -1.000000
vn 0.000000 -0.000000 -1.000000
vn 0.000000 -0.000000 -1.000000
vn 0.000000 -0.000000 -1.000000
vn 0.000000 -0.000000 -1.000000
s 1
f 1/1/1 2/2/2 24/14/3 23/43/4
f 2/3/2 1/21/1 3/23/5 4/4/6
f 4/4/6 3/23/5 5/25/7 6/5/8
f 6/5/8 5/25/7 7/27/9 8/6/10
f 8/6/10 7/27/9 9/29/11 10/7/12
f 10/7/12 9/29/11 11/31/13 12/8/14
f 12/8/14 11/31/13 13/33/15 14/9/16
f 14/9/16 13/33/15 15/35/17 16/10/18
f 16/10/18 15/35/17 17/37/19 18/11/20
f 18/11/20 17/37/19 19/39/21 20/12/22
f 20/12/22 19/39/21 21/41/23 22/13/24
f 22/13/24 21/41/23 23/43/4 24/14/3
s 2
f 25/15/25 26/45/26 28/47/27 27/22/28
f 26/16/26 25/44/25 47/42/29 48/67/30
f 27/22/28 28/47/27 30/49/31 29/24/32
f 29/24/32 30/49/31 32/51/33 31/26/34
f 31/26/34 32/51/33 34/53/35 33/28/36
f 33/28/36 34/53/35 36/55/37 35/30/38
f 35/30/38 36/55/37 38/57/39 37/32/40
f 37/32/40 38/57/39 40/59/41 39/34/42
f 39/34/42 40/59/41 42/61/43 41/36/44
f 41/36/44 42/61/43 44/63/45 43/38/46
f 43/38/46 44/63/45 46/65/47 45/40/48
f 45/40/48 46/65/47 48/67/30 47/42/29
s 3
f 49/17/49 50/69/50 52/71/51 51/46/52
f 50/18/50 49/68/49 71/66/53 72/91/54
f 51/46/52 52/71/51 54/73/55 53/48/56
f 53/48/56 54/73/55 56/75/57 55/50/58
f 55/50/58 56/75/57 58/77/59 57/52/60
f 57/52/60 58/77/59 60/79/61 59/54/62
f 59/54/62 60/79/61 62/81/63 61/56/64
f 61/56/64 62/81/63 64/83/65 63/58/66
f 63/58/66 64/83/65 66/85/67 65/60/68
f 65/60/68 66/85/67 68/87/69 67/62/70
f 67/62/70 68/87/69 70/89/71 69/64/72
f 69/64/72 70/89/71 72/91/54 71/66/53
s 4
f 73/19/73 74/93/74 76/96/75 75/70/76
f 74/20/74 73/92/73 95/90/77 96/116/78
f 75/70/76 76/96/75 78/98/79 77/72/80
f 77/72/80 78/98/79 80/100/81 79/74/82
f 79/74/82 80/100/81 82/102/83 81/76/84
f 81/76/84 82/102/83 84/104/85 83/78/86
f 83/78/86 84/104/85 86/106/87 85/80/88
f 85/80/88 86/106/87 88/108/89 87/82/90
f 87/82/90 88/108/89 90/110/91 89/84/92
f 89/84/92 90/110/91 92/112/93 91/86/94
f 91/86/94 92/112/93 94/114/95 93/88/96
f 93/88/96 94/114/95 96/116/78 95/90/77
s 5
f 3/23/97 1/21/98 25/15/99 27/22/100
f 5/25/101 3/23/97 27/22/100 29/24/102
f 7/27/103 5/25/101 29/24/102 31/26/104
f 9/29/105 7/27/103 31/26/104 33/28/106
f 11/31/107 9/29/105 33/28/106 35/30/108
f 13/33/109 11/31/107 35/30/108 37/32/110
f 15/35/111 13/33/109 37/32/110 39/34/112
f 17/37/113 15/35/111 39/34/112 41/36/114
f 19/39/115 17/37/113 41/36/114 43/38/116
f 21/41/117 19/39/115 43/38/116 45/40/118
f 23/43/119 21/41/117 45/40/118 47/42/120
f 1/1/98 23/43/119 47/42/120 25/44/99
s 6
f 28/47/121 26/45/122 49/17/123 51/46/124
f 30/49/125 28/47/121 51/46/124 53/48/126
f 32/51/127 30/49/125 53/48/126 55/50/128
f 34/53/129 32/51/127 55/50/128 57/52/130
f 36/55/131 34/53/129 57/52/130 59/54/132
f 38/57/133 36/55/131 59/54/132 61/56/134
f 40/59/135 38/57/133 61/56/134 63/58/136
f 42/61/137 40/59/135 63/58/136 65/60/138
f 44/63/139 42/61/137 65/60/138 67/62/140
f 46/65/141 44/63/139 67/62/140 69/64/142
f 48/67/143 46/65/141 69/64/142 71/66/144
f 26/16/122 48/67/143 71/66/144 49/68/123
s 7
f 52/71/145 50/69/146 73/19/147 75/70/148
f 54/73/149 52/71/145 75/70/148 77/72/150
f 56/75/151 54/73/149 77/72/150 79/74/152
f 58/77/153 56/75/151 79/74/152 81/76/154
f 60/79/155 58/77/153 81/76/154 83/78/156
f 62/81/157 60/79/155 83/78/156 85/80/158
f 64/83/159 62/81/157 85/80/158 87/82/160
f 66/85/161 64/83/159 87/82/160 89/84/162
f 68/87/163 66/85/161 89/84/162 91/86/164
f 70/89/165 68/87/163 91/86/164 93/88/166
f 72/91/167 70/89/165 93/88/166 95/90/168
f 50/18/146 72/91/167 95/90/168 73/92/147
s 8
f 76/96/169 74/93/170 2/94/171 4/95/172
f 78/98/173 76/96/169 4/95/172 6/97/174
f 80/100/175 78/98/173 6/97/174 8/99/176
f 82/102/177 80/100/175 8/99/176 10/101/178
f 84/104/179 82/102/177 10/101/178 12/103/180
f 86/106/181 84/104/179 12/103/180 14/105/182
f 88/108/183 86/106/181 14/105/182 16/107/184
f 90/110/185 88/108/183 16/107/184 18/109/186
f 92/112/187 90/110/185 18/109/186 20/111/188
f 94/114/189 92/112/187 20/111/188 22/113/190
f 96/116/191 94/114/189 22/113/190 24/115/192
f 74/20/170 96/116/191 24/115/192 2/117/171
